<mxfile host="app.diagrams.net" agent="Mozilla/5.0 (Windows NT 10.0; Win64; x64) AppleWebKit/537.36 (KHTML, like Gecko) Chrome/137.0.0.0 Safari/537.36 Edg/137.0.0.0" version="28.0.6">
  <diagram name="第 1 页" id="ue7KHxy0CY4cxwpzpLLn">
    <mxGraphModel dx="437" dy="249" grid="1" gridSize="10" guides="1" tooltips="1" connect="1" arrows="1" fold="1" page="1" pageScale="1" pageWidth="827" pageHeight="1169" math="0" shadow="0">
      <root>
        <mxCell id="0" />
        <mxCell id="1" parent="0" />
        <mxCell id="DziqoRsIyFzgKd9OEvQv-7" style="edgeStyle=orthogonalEdgeStyle;rounded=0;orthogonalLoop=1;jettySize=auto;html=1;entryX=0.5;entryY=0;entryDx=0;entryDy=0;fontColor=default;fontSize=10;" edge="1" parent="1" source="DziqoRsIyFzgKd9OEvQv-1" target="DziqoRsIyFzgKd9OEvQv-2">
          <mxGeometry relative="1" as="geometry" />
        </mxCell>
        <mxCell id="DziqoRsIyFzgKd9OEvQv-1" value="应用层" style="rounded=1;whiteSpace=wrap;html=1;fontColor=default;fontSize=10;" vertex="1" parent="1">
          <mxGeometry x="180" y="110" width="100" height="30" as="geometry" />
        </mxCell>
        <mxCell id="DziqoRsIyFzgKd9OEvQv-8" style="edgeStyle=orthogonalEdgeStyle;rounded=0;orthogonalLoop=1;jettySize=auto;html=1;entryX=0.5;entryY=0;entryDx=0;entryDy=0;fontColor=default;fontSize=10;" edge="1" parent="1" source="DziqoRsIyFzgKd9OEvQv-2" target="DziqoRsIyFzgKd9OEvQv-3">
          <mxGeometry relative="1" as="geometry" />
        </mxCell>
        <mxCell id="DziqoRsIyFzgKd9OEvQv-2" value="VFS层" style="rounded=1;whiteSpace=wrap;html=1;fontColor=default;fontSize=10;" vertex="1" parent="1">
          <mxGeometry x="180" y="160" width="100" height="30" as="geometry" />
        </mxCell>
        <mxCell id="DziqoRsIyFzgKd9OEvQv-9" style="edgeStyle=orthogonalEdgeStyle;rounded=0;orthogonalLoop=1;jettySize=auto;html=1;exitX=0.75;exitY=1;exitDx=0;exitDy=0;entryX=0.5;entryY=0;entryDx=0;entryDy=0;fontColor=default;fontSize=10;" edge="1" parent="1" source="DziqoRsIyFzgKd9OEvQv-3" target="DziqoRsIyFzgKd9OEvQv-6">
          <mxGeometry relative="1" as="geometry" />
        </mxCell>
        <mxCell id="DziqoRsIyFzgKd9OEvQv-10" style="edgeStyle=orthogonalEdgeStyle;rounded=0;orthogonalLoop=1;jettySize=auto;html=1;exitX=0.25;exitY=1;exitDx=0;exitDy=0;entryX=0.5;entryY=0;entryDx=0;entryDy=0;fontColor=default;fontSize=10;" edge="1" parent="1" source="DziqoRsIyFzgKd9OEvQv-3" target="DziqoRsIyFzgKd9OEvQv-4">
          <mxGeometry relative="1" as="geometry" />
        </mxCell>
        <mxCell id="DziqoRsIyFzgKd9OEvQv-20" style="edgeStyle=orthogonalEdgeStyle;rounded=0;orthogonalLoop=1;jettySize=auto;html=1;entryX=0;entryY=0.5;entryDx=0;entryDy=0;fontColor=default;fontSize=10;" edge="1" parent="1" source="DziqoRsIyFzgKd9OEvQv-3" target="DziqoRsIyFzgKd9OEvQv-13">
          <mxGeometry relative="1" as="geometry" />
        </mxCell>
        <mxCell id="DziqoRsIyFzgKd9OEvQv-3" value="f2fs核心层" style="rounded=1;whiteSpace=wrap;html=1;fontColor=default;fontSize=10;" vertex="1" parent="1">
          <mxGeometry x="180" y="210" width="100" height="30" as="geometry" />
        </mxCell>
        <mxCell id="DziqoRsIyFzgKd9OEvQv-4" value="数据&lt;div&gt;设备&lt;/div&gt;" style="rounded=1;whiteSpace=wrap;html=1;fontColor=default;fontSize=10;" vertex="1" parent="1">
          <mxGeometry x="180" y="260" width="40" height="40" as="geometry" />
        </mxCell>
        <mxCell id="DziqoRsIyFzgKd9OEvQv-16" style="edgeStyle=orthogonalEdgeStyle;rounded=0;orthogonalLoop=1;jettySize=auto;html=1;entryX=0;entryY=0.5;entryDx=0;entryDy=0;fontColor=default;fontSize=10;" edge="1" parent="1" source="DziqoRsIyFzgKd9OEvQv-6" target="DziqoRsIyFzgKd9OEvQv-12">
          <mxGeometry relative="1" as="geometry" />
        </mxCell>
        <mxCell id="DziqoRsIyFzgKd9OEvQv-6" value="日志&lt;br&gt;&lt;div&gt;设备&lt;/div&gt;" style="rounded=1;whiteSpace=wrap;html=1;fontColor=default;fontSize=10;" vertex="1" parent="1">
          <mxGeometry x="240" y="260" width="40" height="40" as="geometry" />
        </mxCell>
        <mxCell id="DziqoRsIyFzgKd9OEvQv-17" style="edgeStyle=orthogonalEdgeStyle;rounded=0;orthogonalLoop=1;jettySize=auto;html=1;exitX=0.5;exitY=0;exitDx=0;exitDy=0;entryX=0.5;entryY=1;entryDx=0;entryDy=0;fontColor=default;fontSize=10;" edge="1" parent="1" source="DziqoRsIyFzgKd9OEvQv-12" target="DziqoRsIyFzgKd9OEvQv-13">
          <mxGeometry relative="1" as="geometry" />
        </mxCell>
        <mxCell id="DziqoRsIyFzgKd9OEvQv-12" value="高速日志设备&lt;div&gt;（NVMe/DRAM盘）&lt;/div&gt;" style="rounded=1;whiteSpace=wrap;html=1;fontColor=default;fontSize=10;" vertex="1" parent="1">
          <mxGeometry x="314" y="260" width="106" height="40" as="geometry" />
        </mxCell>
        <mxCell id="DziqoRsIyFzgKd9OEvQv-18" style="edgeStyle=orthogonalEdgeStyle;rounded=0;orthogonalLoop=1;jettySize=auto;html=1;exitX=0.5;exitY=0;exitDx=0;exitDy=0;entryX=0.5;entryY=1;entryDx=0;entryDy=0;fontColor=default;fontSize=10;" edge="1" parent="1" source="DziqoRsIyFzgKd9OEvQv-13" target="DziqoRsIyFzgKd9OEvQv-14">
          <mxGeometry relative="1" as="geometry" />
        </mxCell>
        <mxCell id="DziqoRsIyFzgKd9OEvQv-13" value="跨设备一致性控制" style="rounded=1;whiteSpace=wrap;html=1;fontColor=default;fontSize=10;" vertex="1" parent="1">
          <mxGeometry x="314" y="210" width="106" height="30" as="geometry" />
        </mxCell>
        <mxCell id="DziqoRsIyFzgKd9OEvQv-19" style="edgeStyle=orthogonalEdgeStyle;rounded=0;orthogonalLoop=1;jettySize=auto;html=1;exitX=0.5;exitY=0;exitDx=0;exitDy=0;entryX=0.5;entryY=1;entryDx=0;entryDy=0;fontColor=default;fontSize=10;" edge="1" parent="1" source="DziqoRsIyFzgKd9OEvQv-14" target="DziqoRsIyFzgKd9OEvQv-15">
          <mxGeometry relative="1" as="geometry" />
        </mxCell>
        <mxCell id="DziqoRsIyFzgKd9OEvQv-14" value="性能指标收集" style="rounded=1;whiteSpace=wrap;html=1;fontColor=default;fontSize=10;" vertex="1" parent="1">
          <mxGeometry x="314" y="160" width="106" height="30" as="geometry" />
        </mxCell>
        <mxCell id="DziqoRsIyFzgKd9OEvQv-15" value="监控与评估模块" style="rounded=1;whiteSpace=wrap;html=1;fontColor=default;fontSize=10;" vertex="1" parent="1">
          <mxGeometry x="314" y="110" width="106" height="30" as="geometry" />
        </mxCell>
      </root>
    </mxGraphModel>
  </diagram>
</mxfile>
